<svg width="409" height="71" viewBox="0 0 409 71" fill="none" xmlns="http://www.w3.org/2000/svg">
<path d="M17.6926 14.5V28.7H40.5926V41.9H17.6926V57.3H43.5926V71H0.592578V0.799998H43.5926V14.5H17.6926ZM120.594 0.799998L95.6941 71H74.2941L49.3941 0.799998H67.5941L84.9941 53.8L102.494 0.799998H120.594ZM144.841 14.5V28.7H167.741V41.9H144.841V57.3H170.741V71H127.741V0.799998H170.741V14.5H144.841ZM244.643 71H227.543L198.943 27.7V71H181.843V0.799998H198.943L227.543 44.3V0.799998H244.643V71ZM307.538 0.799998V14.5H288.938V71H271.838V14.5H253.238V0.799998H307.538ZM333.22 0.799998V71H316.12V0.799998H333.22ZM408.412 71H391.312L362.712 27.7V71H345.612V0.799998H362.712L391.312 44.3V0.799998H408.412V71Z" fill="white"/>
</svg>
