<svg width="732" height="317" viewBox="0 0 732 317" fill="none" xmlns="http://www.w3.org/2000/svg">
<path d="M701.96 0H30.0401C13.4715 0 0 13.4315 0 30V101.972C0 107.728 3.05156 113.053 8.01793 115.962C43.2829 136.623 43.7397 187.439 8.85191 208.73L7.86691 209.331C2.98077 212.313 0 217.624 0 223.349V287C0 303.569 13.4315 317 30 317H702C718.569 317 732 303.569 732 287V223.221C732 217.558 729.115 212.286 724.345 209.233L723.343 208.592C689.413 186.875 689.87 137.151 724.193 116.062C729.044 113.081 732 107.796 732 102.102V30C732 13.4315 718.529 0 701.96 0Z" fill="#835AFD"/>
<path d="M732 102.162V30C732 13.4315 718.569 0 702 0H419V317H553H702C718.569 317 732 303.569 732 287V223.163C732 217.528 729.159 212.273 724.444 209.188L723.434 208.528C689.949 186.617 690.406 137.393 724.291 116.107C729.088 113.094 732 107.827 732 102.162Z" fill="#D0C1FE"/>
<path d="M383 13.0364L393 3V49L383 38.1273V13.0364Z" fill="#D0C1FE"/>
<path d="M384 68.2545L394 58V105L384 93.8909V68.2545Z" fill="#D0C1FE"/>
<path d="M384 121.473L394 111V159L384 147.655V121.473Z" fill="#D0C1FE"/>
<path d="M384 168.818L394 159V204L384 193.364V168.818Z" fill="#D0C1FE"/>
<path d="M384 219.6L394 210V254L384 243.6V219.6Z" fill="#D0C1FE"/>
<path d="M384 274.818L394 265V310L384 299.364V274.818Z" fill="#D0C1FE"/>
<rect x="426" y="36" width="249" height="240" rx="20" fill="white"/>
<rect x="49" y="39" width="303" height="238" rx="19" stroke="white" stroke-width="2"/>
<rect x="393" width="33" height="317" fill="#D0C1FE"/>
<rect x="110" y="29" width="176" height="20" fill="#835AFD"/>
<path d="M136.922 35.79V40.618H144.708V45.106H136.922V50.342H145.728V55H131.108V31.132H145.728V35.79H136.922ZM171.909 31.132L163.443 55H156.167L147.701 31.132H153.889L159.805 49.152L165.755 31.132H171.909ZM180.152 35.79V40.618H187.938V45.106H180.152V50.342H188.958V55H174.338V31.132H188.958V35.79H180.152ZM214.085 55H208.271L198.547 40.278V55H192.733V31.132H198.547L208.271 45.922V31.132H214.085V55ZM235.469 31.132V35.79H229.145V55H223.331V35.79H217.007V31.132H235.469ZM244.201 31.132V55H238.387V31.132H244.201ZM269.767 55H263.953L254.229 40.278V55H248.415V31.132H254.229L263.953 45.922V31.132H269.767V55Z" fill="white"/>
</svg>